<mxfile host="Electron" modified="2024-07-25T01:52:06.467Z" agent="Mozilla/5.0 (Windows NT 10.0; Win64; x64) AppleWebKit/537.36 (KHTML, like Gecko) draw.io/24.2.5 Chrome/120.0.6099.109 Electron/28.1.0 Safari/537.36" etag="FvNQFPypErIho5af850-" version="24.2.5" type="device">
  <diagram name="Page-1" id="QhXgwx1xgYCa9V8mCzg7">
    <mxGraphModel dx="1098" dy="1198" grid="1" gridSize="10" guides="1" tooltips="1" connect="1" arrows="1" fold="1" page="1" pageScale="1" pageWidth="850" pageHeight="1100" math="0" shadow="0">
      <root>
        <mxCell id="0" />
        <mxCell id="1" parent="0" />
        <mxCell id="IAL54BQWxgzWnuc6RfGo-15" style="edgeStyle=orthogonalEdgeStyle;rounded=0;orthogonalLoop=1;jettySize=auto;html=1;entryX=0;entryY=0.5;entryDx=0;entryDy=0;startArrow=classic;startFill=1;" parent="1" source="IAL54BQWxgzWnuc6RfGo-2" target="IAL54BQWxgzWnuc6RfGo-4" edge="1">
          <mxGeometry relative="1" as="geometry" />
        </mxCell>
        <mxCell id="IAL54BQWxgzWnuc6RfGo-2" value="" style="rounded=0;whiteSpace=wrap;html=1;fillColor=#b0e3e6;strokeColor=#0e8088;" parent="1" vertex="1">
          <mxGeometry x="210" y="330" width="190" height="190" as="geometry" />
        </mxCell>
        <mxCell id="IAL54BQWxgzWnuc6RfGo-3" value="&lt;h1 style=&quot;margin-top: 0px;&quot;&gt;My Application&lt;/h1&gt;&lt;p&gt;Spring&lt;/p&gt;&lt;p&gt;Hibernate&lt;/p&gt;&lt;p&gt;Commons Logging&lt;/p&gt;&lt;p&gt;Json&lt;/p&gt;&lt;p&gt;...&lt;/p&gt;" style="text;html=1;whiteSpace=wrap;overflow=hidden;rounded=0;" parent="1" vertex="1">
          <mxGeometry x="215" y="335" width="180" height="180" as="geometry" />
        </mxCell>
        <mxCell id="IAL54BQWxgzWnuc6RfGo-11" style="edgeStyle=orthogonalEdgeStyle;rounded=0;orthogonalLoop=1;jettySize=auto;html=1;entryX=0;entryY=0.5;entryDx=0;entryDy=0;startArrow=classic;startFill=1;" parent="1" source="IAL54BQWxgzWnuc6RfGo-4" target="IAL54BQWxgzWnuc6RfGo-5" edge="1">
          <mxGeometry relative="1" as="geometry" />
        </mxCell>
        <mxCell id="IAL54BQWxgzWnuc6RfGo-12" style="edgeStyle=orthogonalEdgeStyle;rounded=0;orthogonalLoop=1;jettySize=auto;html=1;startArrow=classic;startFill=1;" parent="1" source="IAL54BQWxgzWnuc6RfGo-4" target="IAL54BQWxgzWnuc6RfGo-8" edge="1">
          <mxGeometry relative="1" as="geometry" />
        </mxCell>
        <mxCell id="IAL54BQWxgzWnuc6RfGo-13" style="edgeStyle=orthogonalEdgeStyle;rounded=0;orthogonalLoop=1;jettySize=auto;html=1;startArrow=classic;startFill=1;" parent="1" source="IAL54BQWxgzWnuc6RfGo-4" target="IAL54BQWxgzWnuc6RfGo-9" edge="1">
          <mxGeometry relative="1" as="geometry" />
        </mxCell>
        <mxCell id="IAL54BQWxgzWnuc6RfGo-14" style="edgeStyle=orthogonalEdgeStyle;rounded=0;orthogonalLoop=1;jettySize=auto;html=1;entryX=0;entryY=0.5;entryDx=0;entryDy=0;startArrow=classic;startFill=1;" parent="1" source="IAL54BQWxgzWnuc6RfGo-4" target="IAL54BQWxgzWnuc6RfGo-10" edge="1">
          <mxGeometry relative="1" as="geometry" />
        </mxCell>
        <mxCell id="IAL54BQWxgzWnuc6RfGo-4" value="Developer" style="rounded=0;whiteSpace=wrap;html=1;fillColor=#76608a;fontColor=#ffffff;strokeColor=#432D57;" parent="1" vertex="1">
          <mxGeometry x="490" y="395" width="120" height="60" as="geometry" />
        </mxCell>
        <mxCell id="IAL54BQWxgzWnuc6RfGo-5" value="Spring JAR files" style="rounded=0;whiteSpace=wrap;html=1;fillColor=#d5e8d4;strokeColor=#82b366;" parent="1" vertex="1">
          <mxGeometry x="710" y="330" width="170" height="30" as="geometry" />
        </mxCell>
        <mxCell id="IAL54BQWxgzWnuc6RfGo-8" value="Hibernate JAR files" style="rounded=0;whiteSpace=wrap;html=1;fillColor=#dae8fc;strokeColor=#6c8ebf;" parent="1" vertex="1">
          <mxGeometry x="710" y="380" width="170" height="30" as="geometry" />
        </mxCell>
        <mxCell id="IAL54BQWxgzWnuc6RfGo-9" value="Apache Commons JAR files" style="rounded=0;whiteSpace=wrap;html=1;fillColor=#f8cecc;strokeColor=#b85450;" parent="1" vertex="1">
          <mxGeometry x="710" y="430" width="170" height="30" as="geometry" />
        </mxCell>
        <mxCell id="IAL54BQWxgzWnuc6RfGo-10" value="JSON JAR files" style="rounded=0;whiteSpace=wrap;html=1;fillColor=#fff2cc;strokeColor=#d6b656;" parent="1" vertex="1">
          <mxGeometry x="710" y="480" width="170" height="30" as="geometry" />
        </mxCell>
      </root>
    </mxGraphModel>
  </diagram>
</mxfile>
